<svg width="51" height="52" viewBox="0 0 51 52" fill="none" xmlns="http://www.w3.org/2000/svg">
<g id="open-book 1" clip-path="url(#clip0_28_3338)">
<g id="Group">
<g id="Group_2">
<g id="Group_3">
<path id="Vector" d="M8.21862 6.74805C8.21728 6.74805 8.21577 6.74805 8.21443 6.74805C7.74342 6.74805 7.30042 6.93387 6.9659 7.27156C6.6277 7.61299 6.44141 8.06761 6.44141 8.55159V35.5954C6.44141 36.5871 7.24173 37.3959 8.22566 37.3985C12.3737 37.4085 19.3232 38.2834 24.1175 43.3609V15.0588C24.1175 14.7226 24.0326 14.4068 23.8725 14.1455C19.9376 7.73229 12.376 6.75789 8.21862 6.74805Z" fill="white"/>
<path id="Vector_2" d="M44.5606 35.5956V8.55159C44.5606 8.06761 44.3743 7.613 44.0361 7.27156C43.7016 6.93387 43.2583 6.74805 42.7878 6.74805C42.7863 6.74805 42.7848 6.74805 42.7834 6.74805C38.6262 6.75806 31.0646 7.73246 27.1296 14.1457C26.9694 14.407 26.8848 14.7228 26.8848 15.059V43.361C31.679 38.2834 38.6285 37.4085 42.7765 37.3985C43.7603 37.3959 44.5606 36.5872 44.5606 35.5956Z" fill="white"/>
<path id="Vector_3" d="M48.6172 12.9844H47.325V35.595C47.325 38.1271 45.2866 40.1918 42.7808 40.1981C39.2624 40.2066 33.4611 40.9028 29.3525 44.8383C36.4584 43.0775 43.9492 44.2221 48.2183 45.2067C48.7513 45.3296 49.3021 45.2026 49.7292 44.8582C50.1548 44.5145 50.3989 44.0008 50.3989 43.4495V14.7876C50.3991 13.7933 49.5996 12.9844 48.6172 12.9844Z" fill="white"/>
<path id="Vector_4" d="M3.67347 35.5951V12.9844H2.38135C1.3991 12.9844 0.599609 13.7933 0.599609 14.7876V43.449C0.599609 44.0005 0.843748 44.514 1.26931 44.8577C1.69605 45.202 2.24637 45.3294 2.78025 45.2062C7.04932 44.2215 14.5403 43.077 21.6458 44.8378C17.5374 40.9025 11.7361 40.2064 8.21769 40.1979C5.71209 40.1918 3.67347 38.1271 3.67347 35.5951Z" fill="white"/>
</g>
</g>
</g>
</g>
<defs>
<clipPath id="clip0_28_3338">
<rect width="49.8" height="50.4" fill="white" transform="translate(0.599609 0.798828)"/>
</clipPath>
</defs>
</svg>
